P3
8 5
255
186 100 0 203 109 0 215 116 0 104 126 132 9 75 132 13 2 6 48 7 22 79 12 36 166 89 0 182 98 0 194 104 0 137 88 26 1 15 26 1 0 0 23 3 10 53 8 24 143 77 0 157 84 0 168 90 0 118 63 0 0 0 0 0 0 0 3 0 1 27 4 12 117 63 0 129 69 0 136 73 0 68 51 26 1 15 26 0 0 0 0 0 0 5 0 2 86 46 0 95 51 0 95 51 0 16 36 14 2 29 14 0 0 0 0 0 0 0 0 0 